<mxfile host="www.draw.io" modified="2020-01-08T06:56:57.644Z" agent="Mozilla/5.0 (Macintosh; Intel Mac OS X 10_14_6) AppleWebKit/537.36 (KHTML, like Gecko) Chrome/79.0.3945.88 Safari/537.36" etag="YeOrFuViQh6KWFZ0x8OE" version="12.4.9" type="github">
  <diagram id="gm_INNJ-tviaVNu3Z4hB" name="Page-2">
    <mxGraphModel dx="946" dy="574" grid="1" gridSize="10" guides="1" tooltips="1" connect="1" arrows="1" fold="1" page="1" pageScale="1" pageWidth="850" pageHeight="1100" math="0" shadow="0">
      <root>
        <mxCell id="OUWnn2sJIhbEwpDIVtZq-0"/>
        <mxCell id="OUWnn2sJIhbEwpDIVtZq-1" parent="OUWnn2sJIhbEwpDIVtZq-0"/>
        <mxCell id="xrVhRpBdvVGZ-5NU4-1h-6" style="edgeStyle=orthogonalEdgeStyle;rounded=0;orthogonalLoop=1;jettySize=auto;html=1;exitX=0.5;exitY=1;exitDx=0;exitDy=0;entryX=0.5;entryY=0;entryDx=0;entryDy=0;strokeColor=#001326;fontSize=15;fontColor=#006633;" parent="OUWnn2sJIhbEwpDIVtZq-1" source="vzhRtEQkwuwS1y8CuVut-0" target="vzhRtEQkwuwS1y8CuVut-1" edge="1">
          <mxGeometry relative="1" as="geometry"/>
        </mxCell>
        <mxCell id="vzhRtEQkwuwS1y8CuVut-0" value="輸入訊息" style="rounded=1;whiteSpace=wrap;html=1;" parent="OUWnn2sJIhbEwpDIVtZq-1" vertex="1">
          <mxGeometry x="250" y="300" width="120" height="60" as="geometry"/>
        </mxCell>
        <mxCell id="l-6AFXMU8v-b-glI6Dur-3" style="edgeStyle=orthogonalEdgeStyle;rounded=0;orthogonalLoop=1;jettySize=auto;html=1;exitX=0.5;exitY=1;exitDx=0;exitDy=0;entryX=0.5;entryY=0;entryDx=0;entryDy=0;strokeColor=#001326;fontSize=15;fontColor=#006633;" parent="OUWnn2sJIhbEwpDIVtZq-1" source="vzhRtEQkwuwS1y8CuVut-1" target="l-6AFXMU8v-b-glI6Dur-1" edge="1">
          <mxGeometry relative="1" as="geometry"/>
        </mxCell>
        <mxCell id="vzhRtEQkwuwS1y8CuVut-1" value="勾選用戶" style="rounded=1;whiteSpace=wrap;html=1;" parent="OUWnn2sJIhbEwpDIVtZq-1" vertex="1">
          <mxGeometry x="250" y="410" width="120" height="60" as="geometry"/>
        </mxCell>
        <mxCell id="xrVhRpBdvVGZ-5NU4-1h-5" style="edgeStyle=orthogonalEdgeStyle;rounded=0;orthogonalLoop=1;jettySize=auto;html=1;exitX=0.5;exitY=1;exitDx=0;exitDy=0;entryX=0.5;entryY=0;entryDx=0;entryDy=0;strokeColor=#001326;fontSize=15;fontColor=#006633;" parent="OUWnn2sJIhbEwpDIVtZq-1" source="vzhRtEQkwuwS1y8CuVut-5" target="vzhRtEQkwuwS1y8CuVut-0" edge="1">
          <mxGeometry relative="1" as="geometry"/>
        </mxCell>
        <mxCell id="vzhRtEQkwuwS1y8CuVut-5" value="後台" style="rounded=0;whiteSpace=wrap;html=1;" parent="OUWnn2sJIhbEwpDIVtZq-1" vertex="1">
          <mxGeometry x="250" y="190" width="120" height="60" as="geometry"/>
        </mxCell>
        <mxCell id="vzhRtEQkwuwS1y8CuVut-7" value="" style="group;fontColor=#660066;" parent="OUWnn2sJIhbEwpDIVtZq-1" vertex="1" connectable="0">
          <mxGeometry x="280" y="50" width="60" height="110" as="geometry"/>
        </mxCell>
        <mxCell id="vzhRtEQkwuwS1y8CuVut-2" value="" style="group" parent="vzhRtEQkwuwS1y8CuVut-7" vertex="1" connectable="0">
          <mxGeometry y="30" width="60" height="80" as="geometry"/>
        </mxCell>
        <mxCell id="vzhRtEQkwuwS1y8CuVut-3" value="" style="image;html=1;labelBackgroundColor=#ffffff;image=img/lib/clip_art/people/Suit_Man_128x128.png" parent="vzhRtEQkwuwS1y8CuVut-2" vertex="1">
          <mxGeometry width="60" height="60" as="geometry"/>
        </mxCell>
        <mxCell id="vzhRtEQkwuwS1y8CuVut-4" value="管理員" style="text;html=1;strokeColor=none;fillColor=none;align=center;verticalAlign=middle;whiteSpace=wrap;rounded=0;" parent="vzhRtEQkwuwS1y8CuVut-2" vertex="1">
          <mxGeometry x="10" y="60" width="40" height="20" as="geometry"/>
        </mxCell>
        <mxCell id="vzhRtEQkwuwS1y8CuVut-6" value="A" style="text;html=1;strokeColor=none;fillColor=none;align=center;verticalAlign=middle;whiteSpace=wrap;rounded=0;fontSize=15;fontStyle=1;fontColor=#006633;" parent="vzhRtEQkwuwS1y8CuVut-7" vertex="1">
          <mxGeometry x="10" width="40" height="20" as="geometry"/>
        </mxCell>
        <mxCell id="xrVhRpBdvVGZ-5NU4-1h-0" value="" style="html=1;verticalLabelPosition=bottom;align=center;labelBackgroundColor=#ffffff;verticalAlign=top;strokeWidth=2;strokeColor=#0080F0;shadow=0;dashed=0;shape=mxgraph.ios7.icons.data;" parent="OUWnn2sJIhbEwpDIVtZq-1" vertex="1">
          <mxGeometry x="460" y="416" width="40" height="54" as="geometry"/>
        </mxCell>
        <mxCell id="xrVhRpBdvVGZ-5NU4-1h-2" value="" style="endArrow=classic;html=1;strokeColor=#001326;fontSize=15;fontColor=#006633;entryX=-0.05;entryY=0.407;entryDx=0;entryDy=0;entryPerimeter=0;dashed=1;" parent="OUWnn2sJIhbEwpDIVtZq-1" source="vzhRtEQkwuwS1y8CuVut-1" target="xrVhRpBdvVGZ-5NU4-1h-0" edge="1">
          <mxGeometry width="50" height="50" relative="1" as="geometry">
            <mxPoint x="370" y="490" as="sourcePoint"/>
            <mxPoint x="440.71067811865476" y="440" as="targetPoint"/>
          </mxGeometry>
        </mxCell>
        <mxCell id="xrVhRpBdvVGZ-5NU4-1h-4" style="edgeStyle=orthogonalEdgeStyle;rounded=0;orthogonalLoop=1;jettySize=auto;html=1;exitX=0.5;exitY=1;exitDx=0;exitDy=0;entryX=0.5;entryY=0;entryDx=0;entryDy=0;strokeColor=#001326;fontSize=15;fontColor=#006633;" parent="OUWnn2sJIhbEwpDIVtZq-1" source="vzhRtEQkwuwS1y8CuVut-4" target="vzhRtEQkwuwS1y8CuVut-5" edge="1">
          <mxGeometry relative="1" as="geometry"/>
        </mxCell>
        <mxCell id="G46RKP9DFBTjOonJv60t-13" style="edgeStyle=orthogonalEdgeStyle;rounded=0;orthogonalLoop=1;jettySize=auto;html=1;exitX=0.5;exitY=1;exitDx=0;exitDy=0;entryX=0.5;entryY=0;entryDx=0;entryDy=0;strokeColor=#001326;fontSize=15;fontColor=#001326;" parent="OUWnn2sJIhbEwpDIVtZq-1" source="l-6AFXMU8v-b-glI6Dur-1" target="G46RKP9DFBTjOonJv60t-3" edge="1">
          <mxGeometry relative="1" as="geometry"/>
        </mxCell>
        <mxCell id="G46RKP9DFBTjOonJv60t-14" style="edgeStyle=orthogonalEdgeStyle;rounded=0;orthogonalLoop=1;jettySize=auto;html=1;exitX=0.5;exitY=1;exitDx=0;exitDy=0;entryX=0.5;entryY=0;entryDx=0;entryDy=0;strokeColor=#001326;fontSize=15;fontColor=#001326;" parent="OUWnn2sJIhbEwpDIVtZq-1" source="l-6AFXMU8v-b-glI6Dur-1" target="G46RKP9DFBTjOonJv60t-5" edge="1">
          <mxGeometry relative="1" as="geometry"/>
        </mxCell>
        <mxCell id="l-6AFXMU8v-b-glI6Dur-1" value="&lt;span style=&quot;color: rgb(0 , 0 , 0) ; font-size: 12px ; white-space: normal&quot;&gt;推播模組&lt;/span&gt;" style="rounded=0;whiteSpace=wrap;html=1;fontSize=15;fillColor=#f8cecc;strokeColor=#b85450;" parent="OUWnn2sJIhbEwpDIVtZq-1" vertex="1">
          <mxGeometry x="420" y="550" width="120" height="60" as="geometry"/>
        </mxCell>
        <mxCell id="Qk1HvIBf3ztWfqtuB9n_-13" style="edgeStyle=orthogonalEdgeStyle;rounded=0;orthogonalLoop=1;jettySize=auto;html=1;exitX=0.5;exitY=1;exitDx=0;exitDy=0;strokeColor=#001326;fontSize=15;fontColor=#001326;" parent="OUWnn2sJIhbEwpDIVtZq-1" edge="1">
          <mxGeometry relative="1" as="geometry">
            <mxPoint x="636" y="464" as="sourcePoint"/>
            <mxPoint x="480" y="550" as="targetPoint"/>
            <Array as="points">
              <mxPoint x="636" y="510"/>
              <mxPoint x="480" y="510"/>
            </Array>
          </mxGeometry>
        </mxCell>
        <mxCell id="Qk1HvIBf3ztWfqtuB9n_-6" value="" style="group" parent="OUWnn2sJIhbEwpDIVtZq-1" vertex="1" connectable="0">
          <mxGeometry x="600" y="40" width="70" height="120" as="geometry"/>
        </mxCell>
        <mxCell id="Qk1HvIBf3ztWfqtuB9n_-0" value="" style="image;html=1;labelBackgroundColor=#ffffff;image=img/lib/clip_art/computers/Server_Tower_128x128.png" parent="Qk1HvIBf3ztWfqtuB9n_-6" vertex="1">
          <mxGeometry y="30" width="70" height="70" as="geometry"/>
        </mxCell>
        <mxCell id="Qk1HvIBf3ztWfqtuB9n_-4" value="B" style="text;html=1;strokeColor=none;fillColor=none;align=center;verticalAlign=middle;whiteSpace=wrap;rounded=0;fontSize=15;fontColor=#006633;fontStyle=1" parent="Qk1HvIBf3ztWfqtuB9n_-6" vertex="1">
          <mxGeometry x="15" width="40" height="20" as="geometry"/>
        </mxCell>
        <mxCell id="Qk1HvIBf3ztWfqtuB9n_-5" value="&lt;font style=&quot;font-size: 12px&quot;&gt;伺服器&lt;/font&gt;" style="text;html=1;strokeColor=none;fillColor=none;align=center;verticalAlign=middle;whiteSpace=wrap;rounded=0;fontSize=15;fontColor=#001326;" parent="Qk1HvIBf3ztWfqtuB9n_-6" vertex="1">
          <mxGeometry x="17" y="100" width="40" height="20" as="geometry"/>
        </mxCell>
        <mxCell id="Qk1HvIBf3ztWfqtuB9n_-9" style="edgeStyle=orthogonalEdgeStyle;rounded=0;orthogonalLoop=1;jettySize=auto;html=1;exitX=0.5;exitY=1;exitDx=0;exitDy=0;strokeColor=#001326;fontSize=15;fontColor=#001326;" parent="OUWnn2sJIhbEwpDIVtZq-1" source="Qk1HvIBf3ztWfqtuB9n_-7" edge="1">
          <mxGeometry relative="1" as="geometry">
            <mxPoint x="636" y="424" as="targetPoint"/>
          </mxGeometry>
        </mxCell>
        <mxCell id="Qk1HvIBf3ztWfqtuB9n_-7" value="&lt;font style=&quot;font-size: 12px&quot;&gt;排程&lt;/font&gt;" style="rounded=0;whiteSpace=wrap;html=1;fontSize=15;fontColor=#001326;" parent="OUWnn2sJIhbEwpDIVtZq-1" vertex="1">
          <mxGeometry x="576" y="190" width="120" height="60" as="geometry"/>
        </mxCell>
        <mxCell id="Qk1HvIBf3ztWfqtuB9n_-8" style="edgeStyle=orthogonalEdgeStyle;rounded=0;orthogonalLoop=1;jettySize=auto;html=1;exitX=0.5;exitY=1;exitDx=0;exitDy=0;entryX=0.5;entryY=0;entryDx=0;entryDy=0;strokeColor=#001326;fontSize=15;fontColor=#001326;" parent="OUWnn2sJIhbEwpDIVtZq-1" source="Qk1HvIBf3ztWfqtuB9n_-5" target="Qk1HvIBf3ztWfqtuB9n_-7" edge="1">
          <mxGeometry relative="1" as="geometry"/>
        </mxCell>
        <mxCell id="Qk1HvIBf3ztWfqtuB9n_-11" value="" style="endArrow=classic;startArrow=classic;html=1;strokeColor=#001326;fontSize=15;fontColor=#001326;exitX=1.1;exitY=0.537;exitDx=0;exitDy=0;exitPerimeter=0;entryX=0;entryY=0.5;entryDx=0;entryDy=0;" parent="OUWnn2sJIhbEwpDIVtZq-1" source="xrVhRpBdvVGZ-5NU4-1h-0" edge="1">
          <mxGeometry width="50" height="50" relative="1" as="geometry">
            <mxPoint x="520" y="470" as="sourcePoint"/>
            <mxPoint x="598" y="444" as="targetPoint"/>
          </mxGeometry>
        </mxCell>
        <mxCell id="G46RKP9DFBTjOonJv60t-15" style="edgeStyle=orthogonalEdgeStyle;rounded=0;orthogonalLoop=1;jettySize=auto;html=1;exitX=0.5;exitY=1;exitDx=0;exitDy=0;entryX=0;entryY=0;entryDx=0;entryDy=0;strokeColor=#001326;fontSize=15;fontColor=#001326;" parent="OUWnn2sJIhbEwpDIVtZq-1" source="G46RKP9DFBTjOonJv60t-3" target="G46RKP9DFBTjOonJv60t-11" edge="1">
          <mxGeometry relative="1" as="geometry"/>
        </mxCell>
        <mxCell id="G46RKP9DFBTjOonJv60t-3" value="Android" style="rounded=0;whiteSpace=wrap;html=1;" parent="OUWnn2sJIhbEwpDIVtZq-1" vertex="1">
          <mxGeometry x="305" y="670" width="120" height="60" as="geometry"/>
        </mxCell>
        <mxCell id="G46RKP9DFBTjOonJv60t-16" style="edgeStyle=orthogonalEdgeStyle;rounded=0;orthogonalLoop=1;jettySize=auto;html=1;exitX=0.5;exitY=1;exitDx=0;exitDy=0;entryX=0;entryY=0;entryDx=0;entryDy=0;strokeColor=#001326;fontSize=15;fontColor=#001326;" parent="OUWnn2sJIhbEwpDIVtZq-1" source="G46RKP9DFBTjOonJv60t-5" target="G46RKP9DFBTjOonJv60t-11" edge="1">
          <mxGeometry relative="1" as="geometry"/>
        </mxCell>
        <mxCell id="G46RKP9DFBTjOonJv60t-5" value="ios" style="rounded=0;whiteSpace=wrap;html=1;" parent="OUWnn2sJIhbEwpDIVtZq-1" vertex="1">
          <mxGeometry x="535" y="670" width="120" height="60" as="geometry"/>
        </mxCell>
        <mxCell id="G46RKP9DFBTjOonJv60t-6" value="" style="group" parent="OUWnn2sJIhbEwpDIVtZq-1" vertex="1" connectable="0">
          <mxGeometry x="405" y="850" width="150" height="160" as="geometry"/>
        </mxCell>
        <mxCell id="G46RKP9DFBTjOonJv60t-7" value="" style="group" parent="G46RKP9DFBTjOonJv60t-6" vertex="1" connectable="0">
          <mxGeometry width="80" height="100" as="geometry"/>
        </mxCell>
        <mxCell id="G46RKP9DFBTjOonJv60t-8" value="" style="image;html=1;labelBackgroundColor=#ffffff;image=img/lib/clip_art/people/Worker_Man_128x128.png" parent="G46RKP9DFBTjOonJv60t-7" vertex="1">
          <mxGeometry y="-40" width="80" height="80" as="geometry"/>
        </mxCell>
        <mxCell id="G46RKP9DFBTjOonJv60t-9" value="客戶" style="text;html=1;strokeColor=none;fillColor=none;align=center;verticalAlign=middle;whiteSpace=wrap;rounded=0;" parent="G46RKP9DFBTjOonJv60t-7" vertex="1">
          <mxGeometry x="20" y="40" width="40" height="20" as="geometry"/>
        </mxCell>
        <mxCell id="G46RKP9DFBTjOonJv60t-10" value="" style="group" parent="G46RKP9DFBTjOonJv60t-6" vertex="1" connectable="0">
          <mxGeometry x="70" y="-40" width="80" height="100" as="geometry"/>
        </mxCell>
        <mxCell id="G46RKP9DFBTjOonJv60t-11" value="" style="image;html=1;labelBackgroundColor=#ffffff;image=img/lib/clip_art/people/Waiter_Woman_Black_128x128.png" parent="G46RKP9DFBTjOonJv60t-10" vertex="1">
          <mxGeometry width="80" height="80" as="geometry"/>
        </mxCell>
        <mxCell id="G46RKP9DFBTjOonJv60t-12" value="客戶" style="text;html=1;strokeColor=none;fillColor=none;align=center;verticalAlign=middle;whiteSpace=wrap;rounded=0;" parent="G46RKP9DFBTjOonJv60t-10" vertex="1">
          <mxGeometry x="20" y="80" width="40" height="20" as="geometry"/>
        </mxCell>
        <mxCell id="5SL9o8UY79V9ppfO5sOK-0" value="執行檔" style="rounded=0;whiteSpace=wrap;html=1;fillColor=#d5e8d4;strokeColor=#82b366;" vertex="1" parent="OUWnn2sJIhbEwpDIVtZq-1">
          <mxGeometry x="600" y="423" width="80" height="40" as="geometry"/>
        </mxCell>
      </root>
    </mxGraphModel>
  </diagram>
</mxfile>
